HIERARCHY
ROOT Hips
{
	OFFSET	0.00	0.00	0.00
	CHANNELS 6 Xposition Yposition Zposition Zrotation Xrotation Yrotation
	JOINT LeftUpLeg
	{
		OFFSET	 0.126116	-0.014019	-0.065224
		CHANNELS 3 Zrotation Xrotation Yrotation
		JOINT LeftLeg
		{
			OFFSET	 0.000000	 0.000000	 0.569914
			CHANNELS 3 Zrotation Xrotation Yrotation
			JOINT LeftFoot
			{
				OFFSET	 0.000000	 0.000000	 0.544423
				CHANNELS 3 Zrotation Xrotation Yrotation
				JOINT LeftToeBase
				{
					OFFSET	 0.000000	 0.000000	 0.207117
					CHANNELS 3 Zrotation Xrotation Yrotation
					End Site
					{
						OFFSET	 0.000000	 0.000000	 0.207117
					}
				}
			}
		}
	}
	JOINT RightUpLeg
	{
		OFFSET	-0.124023	-0.008373	-0.065224
		CHANNELS 3 Zrotation Xrotation Yrotation
		JOINT RightLeg
		{
			OFFSET	 0.000000	 0.000000	 0.570047
			CHANNELS 3 Zrotation Xrotation Yrotation
			JOINT RightFoot
			{
				OFFSET	 0.000000	 0.000000	 0.544354
				CHANNELS 3 Zrotation Xrotation Yrotation
				JOINT RightToeBase
				{
					OFFSET	 0.000000	 0.000000	 0.207540
					CHANNELS 3 Zrotation Xrotation Yrotation
					End Site
					{
						OFFSET	 0.000000	 0.000000	 0.207540
					}
				}
			}
		}
	}
	JOINT Spine
	{
		OFFSET	 0.000184	-0.007763	 0.117403
		CHANNELS 3 Zrotation Xrotation Yrotation
		JOINT Spine1
		{
			OFFSET	 0.000000	 0.000000	 0.137269
			CHANNELS 3 Zrotation Xrotation Yrotation
			JOINT Spine2
			{
				OFFSET	 0.000000	 0.000000	 0.156879
				CHANNELS 3 Zrotation Xrotation Yrotation
				JOINT LeftShoulder
				{
					OFFSET	 0.080501	-0.002496	 0.160144
					CHANNELS 3 Zrotation Xrotation Yrotation
					JOINT LeftArm
					{
						OFFSET	 0.000000	 0.000000	 0.164363
						CHANNELS 3 Zrotation Xrotation Yrotation
						JOINT LeftForeArm
						{
							OFFSET	 0.000000	 0.000000	 0.364576
							CHANNELS 3 Zrotation Xrotation Yrotation
							JOINT LeftHand
							{
								OFFSET	 0.000000	 0.000000	 0.360812
								CHANNELS 3 Zrotation Xrotation Yrotation
								JOINT LeftHandIndex1
								{
									OFFSET	 0.000000	 0.000000	 0.086006
									CHANNELS 3 Zrotation Xrotation Yrotation
									JOINT LeftHandIndex2
									{
										OFFSET	 0.000000	 0.000000	 0.047236
										CHANNELS 3 Zrotation Xrotation Yrotation
										JOINT LeftHandIndex3
										{
											OFFSET	-0.004284	-0.000551	 0.038166
											CHANNELS 3 Zrotation Xrotation Yrotation
											End Site
											{
												OFFSET	-0.004284	-0.000551	 0.038166
											}
										}
									}
								}
							}
						}
					}
				}
				JOINT Neck
				{
					OFFSET	 0.000000	 0.000000	 0.176489
					CHANNELS 3 Zrotation Xrotation Yrotation
					JOINT Head
					{
						OFFSET	 0.000000	-0.001747	 0.077940
						CHANNELS 3 Zrotation Xrotation Yrotation
						End Site
						{
							OFFSET	 0.000000	-0.001747	 0.077940
						}
					}
				}
				JOINT RightShoulder
				{
					OFFSET	-0.080363	 0.000306	 0.159706
					CHANNELS 3 Zrotation Xrotation Yrotation
					JOINT RightArm
					{
						OFFSET	 0.000000	 0.000000	 0.164196
						CHANNELS 3 Zrotation Xrotation Yrotation
						JOINT RightForeArm
						{
							OFFSET	 0.000000	 0.000000	 0.365611
							CHANNELS 3 Zrotation Xrotation Yrotation
							JOINT RightHand
							{
								OFFSET	 0.000000	 0.000000	 0.360648
								CHANNELS 3 Zrotation Xrotation Yrotation
								JOINT RightHandIndex1
								{
									OFFSET	 0.000000	 0.000000	 0.069977
									CHANNELS 3 Zrotation Xrotation Yrotation
									JOINT RightHandIndex2
									{
										OFFSET	 0.000000	 0.000000	 0.052305
										CHANNELS 3 Zrotation Xrotation Yrotation
										JOINT RightHandIndex3
										{
											OFFSET	 0.009002	-0.000782	 0.042196
											CHANNELS 3 Zrotation Xrotation Yrotation
											End Site
											{
												OFFSET	 0.009002	-0.000782	 0.042196
											}
										}
									}
								}
							}
						}
					}
				}
			}
		}
	}
}
MOTION
Frames:    12
Frame Time: 0.03333334
-8.307276	-30.092100	 0.916495	-32.903470	 9.625167	 3.118927	 5.654586	-20.758860	 175.397000	-4.180387	-36.466030	-0.939667	-1.137090	 83.613770	-0.443463	-2.333906	 36.435130	-0.183886	-2.070322	-22.728730	-178.933100	-1.992413	-40.587390	-0.997350	-1.496498	 87.244300	 0.688701	 2.394391	 25.857860	-0.053872	 7.101418	 4.551341	-1.605637	 11.918130	 3.166401	-2.007143	 13.912880	 1.361910	 0.758940	-101.703000	 88.614070	-167.374300	 56.226920	 68.567540	-66.018550	-5.220101	-4.369547	-18.196550	 7.274166	-7.962879	-5.358049	-1.732174	-11.173850	 7.796111	-5.213516	-0.193813	 3.566525	-1.378229	 35.397820	-2.634230	 0.672732	 1.269347	 0.594723	 3.797313	 2.455079	-0.030097	 96.504330	 87.881420	 170.358500	-52.001090	 76.395180	 65.107760	-1.971575	-13.064810	 23.463930	-25.355840	-8.846830	 9.666800	-7.551793	-4.194351	-37.437730	 5.070815	-0.697434	-9.399699	-2.350882	 35.473990	 5.254307
-8.304682	-30.087710	 0.919049	-32.965630	 9.458545	 3.105663	 5.613451	-20.649050	 175.440000	-4.263556	-36.313180	-1.001855	-1.172935	 83.509920	-0.502082	-2.333262	 36.508260	-0.185692	-1.994633	-22.638040	-178.948200	-2.014234	-40.412530	-0.969573	-1.515905	 86.996060	 0.725967	 2.392672	 26.363050	-0.043253	 7.109073	 4.592016	-1.626082	 11.935600	 3.152218	-1.983373	 13.941190	 1.334828	 0.763800	-101.544400	 88.592220	-167.528700	 54.662760	 68.106480	-64.593060	-4.892456	-4.317767	-17.822040	 7.324165	-7.967562	-5.355968	-2.031458	-11.158850	 7.097268	-5.213516	-0.193813	 3.566525	-1.378229	 35.397820	-2.634230	 0.708705	 1.298001	 0.641338	 3.824137	 2.420443	-0.004967	 96.588280	 87.892990	 170.258000	-50.721380	 75.766360	 64.118970	-2.067453	-12.769780	 23.261160	-24.959820	-8.847499	 9.666267	-7.428328	-4.197744	-37.118980	 5.070815	-0.697434	-9.399699	-2.350882	 35.473990	 5.254307
-8.305889	-30.088650	 0.921774	-32.968580	 9.309975	 3.062800	 5.550525	-20.468000	 175.414700	-4.319364	-36.422660	-1.078818	-1.226141	 83.569370	-0.548127	-2.331204	 36.738020	-0.191403	-1.870491	-22.358090	-178.953000	-2.005148	-40.194750	-0.892995	-1.526598	 86.736080	 0.813091	 2.394042	 25.964350	-0.051638	 7.083806	 4.620217	-1.616171	 11.935550	 3.213271	-1.992237	 13.987210	 1.360815	 0.763170	-101.397100	 88.596530	-167.724700	 54.208580	 68.185990	-64.029590	-4.811859	-4.290941	-17.450510	 7.456376	-7.976868	-5.352476	-2.241807	-11.336830	 6.593954	-5.213516	-0.193813	 3.566525	-1.378229	 35.397820	-2.634230	 0.750257	 1.388816	 0.662197	 3.883240	 2.506245	 0.064445	 96.653360	 87.909030	 170.192500	-51.260060	 75.691370	 64.592930	-2.237629	-12.738010	 23.174790	-24.981730	-8.848943	 9.665345	-7.400708	-4.236981	-37.018410	 5.070815	-0.697434	-9.399699	-2.350882	 35.473990	 5.254307
-8.307829	-30.089850	 0.921366	-32.863280	 9.131562	 2.998793	 5.475988	-20.271610	 175.390900	-4.322739	-36.488560	-1.128848	-1.272635	 83.662280	-0.568904	-2.329204	 36.958250	-0.196897	-1.766080	-21.785750	-178.978000	-1.926433	-39.524480	-0.788764	-1.504445	 86.478300	 0.902929	 2.395163	 25.616740	-0.058918	 7.018069	 4.579192	-1.601666	 11.901710	 3.291923	-2.001572	 14.024640	 1.419784	 0.757998	-101.154900	 88.607320	-168.055700	 53.702470	 68.358540	-63.401390	-4.763734	-4.266338	-17.011200	 7.644698	-7.991428	-5.346274	-2.937930	-11.608360	 4.959910	-5.213516	-0.193813	 3.566525	-1.378229	 35.397820	-2.634230	 0.770330	 1.482141	 0.709778	 3.954764	 2.695872	 0.077547	 96.762150	 87.933510	 170.079500	-51.822190	 75.650420	 65.024430	-2.404676	-12.705160	 23.088420	-25.003340	-8.850928	 9.664503	-7.356095	-4.248360	-36.895500	 5.070815	-0.697434	-9.399699	-2.350882	 35.473990	 5.254307
-8.309818	-30.090940	 0.921132	-32.709860	 9.017503	 2.928674	 5.408283	-20.115490	 175.375100	-4.286899	-36.501000	-1.147895	-1.310634	 83.736150	-0.559217	-2.327554	 37.137100	-0.201380	-1.714881	-21.162490	-179.006300	-1.755020	-38.766950	-0.660533	-1.382896	 86.413020	 0.939885	 2.395006	 25.665050	-0.057906	 6.935580	 4.479514	-1.574952	 11.845470	 3.355607	-2.004698	 14.040420	 1.480537	 0.751397	-100.891600	 88.614500	-168.404800	 53.364150	 68.505820	-62.968190	-4.714270	-4.248544	-16.656030	 7.811999	-8.003973	-5.340849	-3.386890	-11.780130	 3.913633	-5.213516	-0.193813	 3.566525	-1.378229	 35.397820	-2.634230	 0.765796	 1.568256	 0.758146	 4.011692	 2.890014	 0.031807	 96.885910	 87.960210	 169.951000	-52.212210	 75.648050	 65.261970	-2.522752	-12.679650	 23.025200	-25.017540	-8.852802	 9.663988	-7.312694	-4.235548	-36.793870	 5.070815	-0.697434	-9.399699	-2.350882	 35.473990	 5.254307
-8.312319	-30.092310	 0.920970	-32.489630	 8.929558	 2.837266	 5.317961	-19.938800	 175.360600	-4.214634	-36.472650	-1.155385	-1.343447	 83.795020	-0.542020	-2.325724	 37.332340	-0.206298	-1.759151	-20.350780	-178.993600	-1.459763	-37.788610	-0.514062	-1.229101	 86.472530	 0.987706	 2.392959	 26.280320	-0.044995	 6.826357	 4.324656	-1.541475	 11.763040	 3.419428	-2.000095	 14.044300	 1.554371	 0.742534	-100.513300	 88.613230	-168.882600	 53.052510	 68.684460	-62.563760	-4.670867	-4.229334	-16.272290	 8.001999	-8.016281	-5.335883	-3.462432	-11.880460	 3.737178	-5.213516	-0.193813	 3.566525	-1.378229	 35.397820	-2.634230	 0.746121	 1.669782	 0.828656	 4.071146	 3.135023	-0.072616	 97.078340	 88.001690	 169.753100	-52.523040	 75.680640	 65.335210	-2.638959	-12.650510	 22.959290	-25.028940	-8.855296	 9.663786	-7.258701	-4.199906	-36.682150	 5.070815	-0.697434	-9.399699	-2.350882	 35.473990	 5.254307
-8.314784	-30.093410	 0.920908	-32.265880	 8.886265	 2.765078	 5.213429	-19.768850	 175.344600	-4.130247	-36.403730	-1.161081	-1.381363	 83.802510	-0.518130	-2.324127	 37.501270	-0.210564	-1.871318	-19.674420	-179.033100	-1.216797	-36.847860	-0.446112	-1.400165	 86.522160	 1.273625	 2.390843	 26.870190	-0.032523	 6.727743	 4.159398	-1.539322	 11.687830	 3.471997	-1.987848	 14.041530	 1.630434	 0.733042	-100.077700	 88.595280	-169.402200	 52.805540	 68.898410	-62.296050	-4.702485	-4.214824	-15.943990	 8.179945	-8.026901	-5.331657	-3.342768	-11.926080	 4.013218	-5.213516	-0.193813	 3.566525	-1.378229	 35.397820	-2.634230	 0.728810	 1.762444	 0.906438	 4.118936	 3.379027	-0.164711	 97.330350	 88.054990	 169.497500	-52.758120	 75.728730	 65.324040	-2.732403	-12.621460	 22.901150	-25.033800	-8.858055	 9.663845	-7.205558	-4.147114	-36.585250	 5.070815	-0.697434	-9.399699	-2.350882	 35.473990	 5.254307
-8.317131	-30.094080	 0.920937	-32.097890	 8.862500	 2.774892	 5.097250	-19.604160	 175.256300	-4.063376	-36.295170	-1.185609	-1.414078	 83.741980	-0.526481	-2.322789	 37.640240	-0.214091	-2.007271	-19.212050	-179.217400	-1.059712	-36.034550	-0.453315	-1.425528	 86.478250	 1.304398	 2.390914	 26.851380	-0.032926	 6.658425	 4.011928	-1.636567	 11.643390	 3.516691	-1.990112	 14.038560	 1.705696	 0.723641	-99.592550	 88.553010	-169.945700	 52.649750	 69.141100	-62.227360	-4.764199	-4.221917	-15.674750	 8.400555	-8.037834	-5.327204	-3.285275	-11.961130	 4.145409	-5.213516	-0.193813	 3.566525	-1.378229	 35.397820	-2.634230	 0.731226	 1.841176	 0.987627	 4.148487	 3.604751	-0.196299	 97.656970	 88.124870	 169.175600	-53.024470	 75.769170	 65.386830	-2.807156	-12.590390	 22.847530	-25.031410	-8.861176	 9.664094	-7.154971	-4.079141	-36.506120	 5.070815	-0.697434	-9.399699	-2.350882	 35.473990	 5.254307
-8.319315	-30.094530	 0.921042	-32.049130	 8.848327	 2.925288	 4.996421	-19.448380	 175.019700	-4.044058	-36.145110	-1.236796	-1.449580	 83.638250	-0.572082	-2.322180	 37.703480	-0.215697	-2.174061	-18.866360	-179.479700	-1.056001	-35.446780	-0.567882	-1.558609	 86.433010	 1.286444	 2.393506	 26.122770	-0.048306	 6.637669	 3.881571	-1.874874	 11.649880	 3.533513	-2.023629	 14.038290	 1.758955	 0.717082	-99.080920	 88.476460	-170.475300	 52.551160	 69.430080	-62.302260	-4.904455	-4.244599	-15.486760	 8.625446	-8.047610	-5.322627	-3.243620	-11.975830	 4.241337	-5.213516	-0.193813	 3.566525	-1.378229	 35.397820	-2.634230	 0.764824	 1.936191	 1.067367	 4.154609	 3.736240	-0.158272	 98.080990	 88.216880	 168.773300	-53.176300	 75.816480	 65.327490	-2.863766	-12.555610	 22.796660	-25.020060	-8.864837	 9.664227	-7.109809	-3.997223	-36.451240	 5.070815	-0.697434	-9.399699	-2.350882	 35.473990	 5.254307
-8.321299	-30.094960	 0.921207	-32.166210	 8.853943	 3.148515	 4.930293	-19.309590	 174.759800	-4.085449	-35.958220	-1.304069	-1.477175	 83.510220	-0.652661	-2.322382	 37.682850	-0.215172	-2.313581	-18.575720	-179.714400	-1.242332	-35.028560	-0.770923	-1.810526	 86.289540	 1.247071	 2.396180	 25.288710	-0.065762	 6.674039	 3.738731	-2.143312	 11.707870	 3.520185	-2.080482	 14.042850	 1.784575	 0.714171	-98.757110	 88.402340	-170.777000	 52.365310	 69.796040	-62.235790	-5.173403	-4.270992	-15.414790	 8.782831	-8.054214	-5.319952	-3.301620	-12.082840	 4.105254	-5.213516	-0.193813	 3.566525	-1.378229	 35.397820	-2.634230	 0.832106	 2.062760	 1.127430	 4.138944	 3.776962	-0.102971	 98.403370	 88.295090	 168.494000	-53.289530	 75.846490	 65.283100	-2.918065	-12.524190	 22.745100	-25.017610	-8.869123	 9.664040	-7.071084	-3.909638	-36.417100	 5.070815	-0.697434	-9.399699	-2.350882	 35.473990	 5.254307
-8.322869	-30.095340	 0.921389	-32.423120	 8.879653	 3.296912	 4.904383	-19.177380	 174.692800	-4.189387	-35.750860	-1.372451	-1.494838	 83.377470	-0.748986	-2.322724	 37.647360	-0.214267	-2.405769	-18.436310	-179.837800	-1.468297	-34.751270	-0.959717	-2.060962	 86.142830	 1.218585	 2.397477	 24.847200	-0.074936	 6.755799	 3.572692	-2.276594	 11.791790	 3.479223	-2.106540	 14.046910	 1.769373	 0.716245	-98.722070	 88.373820	-170.777300	 52.232350	 70.108650	-62.126640	-5.493479	-4.284286	-15.479380	 8.792639	-8.055940	-5.320936	-3.507922	-12.338510	 3.626570	-5.213516	-0.193813	 3.566525	-1.378229	 35.397820	-2.634230	 0.910611	 2.176547	 1.146194	 4.115538	 3.776111	-0.105596	 98.386170	 88.324850	 168.575500	-53.319030	 75.856290	 65.212470	-2.984716	-12.503880	 22.691270	-25.040980	-8.873853	 9.663430	-7.038077	-3.829865	-36.391810	 5.070815	-0.697434	-9.399699	-2.350882	 35.473990	 5.254307
-8.324372	-30.095600	 0.921579	-32.767360	 8.894853	 3.274859	 4.920592	-19.014290	 174.763600	-4.345448	-35.504130	-1.437222	-1.518360	 83.236760	-0.840206	-2.323109	 37.607390	-0.213255	-2.451494	-18.415050	-179.818700	-1.687033	-34.566510	-1.107793	-2.296466	 86.059260	 1.234330	 2.397744	 24.753840	-0.076859	 6.866595	 3.414589	-2.194109	 11.875980	 3.418202	-2.061961	 14.044530	 1.712984	 0.723055	-98.842910	 88.375870	-170.620100	 52.238420	 70.333590	-62.065930	-5.918743	-4.263754	-15.712680	 8.561518	-8.052960	-5.326502	-3.763483	-12.661370	 3.039169	-5.213516	-0.193813	 3.566525	-1.378229	 35.397820	-2.634230	 0.990561	 2.253453	 1.118380	 4.092120	 3.784471	-0.187934	 98.142870	 88.323220	 168.894700	-53.229550	 75.846790	 65.063490	-3.066176	-12.489500	 22.629630	-25.086370	-8.879204	 9.662486	-7.008643	-3.754257	-36.372570	 5.070815	-0.697434	-9.399699	-2.350882	 35.473990	 5.254307
